<svg width="108" height="36" fill="none" xmlns="http://www.w3.org/2000/svg">
    <path d="m89.7854 9.64844-.2469-.41769c-1.0196-1.70695-2.4469-3.13422-4.1538-4.15384l-.4154-.24461.4154-.24462c1.7067-1.01985 3.134-2.44706 4.1538-4.153835L89.7854 0l.2446.417691c1.0191 1.707369 2.4465 3.134749 4.1539 4.153839l.4315.25384-.4223.25154c-1.7069 1.01962-3.1342 2.44689-4.1538 4.15384l-.2539.41769Zm-3.4477-4.82307c.8276.21984 1.5823.6545 2.1878 1.25996.6054.60545 1.0401 1.36019 1.2599 2.18773.7777-1.96384 1.9062-2.91692 3.4477-3.44769-.8155-.24158-1.5578-.68274-2.1598-1.28353-.602-.60079-1.0447-1.34224-1.2879-2.15723-.6092 1.80231-1.6315 2.84538-3.4477 3.44076Z" fill="#53AE93" />
    <path d="M72.5193 24.4107v.6554l-5.7138 1.0108c-1.0408.1546-1.08-.7339-1.08-.7339v-2.9746c-.9231 1.9223-4.1308 3.7385-6.5239 3.7385-3.0507 0-4.8646-1.2716-4.8646-5.9054V11.94c0-2.30771.0785-2.6631-2.1623-2.97233v-.66l6.9508-.73384V20.0769c0 2.1623 1.0015 3.2054 3.2423 3.2054 1.08 0 2.5384-1.3108 3.3577-2.8039v-8.4207c0-2.35618.1546-2.85695-1.8139-3.09003v-.66l6.6392-.73384V22.2046c0 1.8577.3485 2.0123 1.9685 2.2061ZM50.3978 8.27306c.5787.50156.9344 1.21247.989 1.97634.0545.7638-.1967 1.518-.6982 2.0967-.5016.5787-1.2125.9344-1.9763.989-.7639.0545-1.5181-.1966-2.0968-.6982-.2716-.2361-.4908-.5264-.6434-.8523-.1526-.3259-.2353-.6802-.2427-1.04 0-.4246-1.5831.5377-3 2.7254v7.5807c0 2.1623.1915 3.6692 1.5807 4.0546v.6554h-8.0007v-.6554c1.5046-.4615 1.5438-2.0469 1.5438-4.0546v-8.5684c0-1.3131-.3484-1.8923-1.9315-2.70463v-.65538l6.7961-1.54384V11.94c2.0446-3.2031 3.6277-3.78232 4.5531-4.16771.8123-.34846 2.28-.19384 3.1269.50077ZM100.551 22.83c-2.5871-.5839-4.5187-2.5708-4.8279-6.3877H108c0-6.0739-2.624-9.00001-8.2223-9.00001-5.3284 0-9.0323 3.92311-9.0323 9.42461 0 4.5577 3.4616 9.2677 8.5385 9.2677 5.1741 0 7.4511-3.0739 8.0771-5.1l-.658-.3508c-.981 1.8346-4.068 2.6238-6.152 2.1462Zm-.9671-14.23156c2.0561 0 3.6001 1.79766 3.6921 6.41536h-7.5437c.1223-3.5954 1.6685-6.41536 3.8516-6.41536ZM89.6562 17.8823c.3231 1.9684-.6923 5.6769-4.8069 7.553-4.5069 2.0539-9.8631-.4177-11.7092-4.4284-1.8116-3.9439-.9808-10.2185 4.8969-12.90692 2.4415-1.11692 4.9592-.53538 5.7692-.29077.442.14412.8371.40436 1.144.7535.3069.34913.5143.77433.6006 1.23111.1115.66228-.0425 1.34188-.4287 1.89138-.3862.5495-.9734.9246-1.6343 1.044-.3242.0612-.6574.0567-.9797-.0133-.3224-.07-.6275-.2039-.8971-.3939a2.464586 2.464586 0 0 1-.6727-.7124c-.1744-.28-.2907-.5922-.3421-.9181-.0728-.3227-.0716-.6576.0035-.97977.0751-.32214.2223-.62308.4304-.88021.2469-.27923-1.5554 0-2.5616.6923-2.1092 1.43768-2.6677 5.51538-1.0154 8.90998 1.68 3.4615 5.3539 4.9408 7.6985 4.0246 2.7369-1.0661 3.6-3.1638 3.87-4.6569l.6346.0808ZM35.5502 16.5807c0-5.9376-4.1216-9.61148-8.9308-8.72995-.4076.06284-.808.16564-1.1954.30692h-.03c-1.2352.44762-2.2481 1.35787-2.8246 2.53843V7.57845l-6.6807 1.54384v.65538c1.5346.58153 1.92.85153 1.92 2.16233v19.6499c0 1.9685-.0785 3.3208-1.537 3.7454v.6646h7.8692v-.6554c-1.343-.3484-1.5738-1.583-1.5738-3.7453V24.923c1.1008.7731 2.5892 1.1977 4.2185 1.1977 5.0007-.1869 8.7692-3.1246 8.7692-9.0646l-.0046-.4754Zm-9.1593-7.05918c3 .50998 3.9693 3.80998 3.9693 7.18378v.5447c0 4.3269-1.8139 7.5946-4.1216 7.5461-1.6707-.1985-3.3784-1.4654-3.6715-4.7885v-6.5307c.2492-2.1415 1.8946-4.10769 3.8238-3.95538ZM2.13945 24.563C.550223 23.4861-.153621 22.25.027917 20.8546c.041405-.3615.156573-.7107.338374-1.0258a2.657764 2.657764 0 0 1 .718549-.8065c.30388-.2285.64993-.3946 1.01825-.4889.36831-.0942.75162-.1148 1.1279-.0604.75567.0594 1.45924.4082 1.96384.9739a2.249 2.249 0 0 1 .50191.8568c.10141.3194.13019.6574.08424.9893a2.307693 2.307693 0 0 1-.31166.9194c-.1679.2809-.39362.5229-.66218.7099-.17945.1244-.36591.2385-.55846.3415l.06.1154.03923.06c.78 1.2646 2.48538 1.6569 3.74999 1.5623 3.5446-.2654 3.96-4.1539.57692-5.7046l-4.1423-2.22C2.64253 16.0453.955607 15.1246.692531 13.3292.230993 10.3638 2.43945 8.56383 5.1256 7.92229c2.06076-.49154 4.48384-.11308 5.3446.11077.0831.02077 1.0477.26307 1.4238.41538.4252.16502.8346.36815 1.2231.60692.96.62077 1.2208 1.32924 1.1908 2.14154-.0018.3056-.0655.6076-.187.888a2.2653 2.2653 0 0 1-.5205.7434c-.2218.2102-.4838.3734-.7703.4797s-.5916.1535-.8968.1389c-1.3685 0-2.44386-1.08-2.3931-2.3354-.0074-.3069.05771-.6113.19003-.8884.13232-.27706.32817-.51901.57147-.7062.0508-.03692.0347-.06692-.0253-.09231-1.01312-.39-1.82773-.41076-2.97927-.31153a4.615341 4.615341 0 0 0-1.27615.44076c-.65769.36-1.02692.85158-1.01077 1.47688.01847.75.57923 1.7308 2.14385 2.5223 1.11692.5677 3.46154 1.5024 4.57614 2.0539 3.7569 1.8461 4.7054 5.2754 2.6492 7.9384a8.36976 8.36976 0 0 1-2.8292 1.98c-1.0704.4561-2.2242.6841-3.38768.6693-2.62385 0-4.44-.5677-6.1223-1.687" fill="#254442" />
</svg>